<mxfile host="app.diagrams.net" agent="Mozilla/5.0 (X11; Linux x86_64) AppleWebKit/537.36 (KHTML, like Gecko) Chrome/133.0.0.0 Safari/537.36" version="27.0.6">
  <diagram name="Xem chi tiết sự kiện" id="13e1069c-82ec-6db2-03f1-153e76fe0fe0">
    <mxGraphModel dx="968" dy="507" grid="1" gridSize="10" guides="1" tooltips="1" connect="1" arrows="1" fold="1" page="1" pageScale="1" pageWidth="1100" pageHeight="850" background="none" math="0" shadow="0">
      <root>
        <mxCell id="0" />
        <mxCell id="1" parent="0" />
        <mxCell id="kQp47Izvt7wKuxhaLCoe-9" value="Nhấp vào sự kiện" style="edge;orthogonal=0;html=1;entryX=0;entryY=0.5;entryDx=0;entryDy=0;exitX=1;exitY=0.5;exitDx=0;exitDy=0;source=6;target=7;" edge="1" parent="1">
          <mxGeometry relative="1" as="geometry" />
        </mxCell>
        <mxCell id="kQp47Izvt7wKuxhaLCoe-10" value="Yêu cầu chi tiết sự kiện (ID)" style="edge;orthogonal=0;html=1;entryX=0;entryY=0.5;entryDx=0;entryDy=0;exitX=1;exitY=0.5;exitDx=0;exitDy=0;source=7;target=8;" edge="1" parent="1">
          <mxGeometry relative="1" as="geometry" />
        </mxCell>
        <mxCell id="kQp47Izvt7wKuxhaLCoe-11" value="Truy vấn sự kiện (ID)" style="edge;orthogonal=0;html=1;entryX=0;entryY=0.5;entryDx=0;entryDy=0;exitX=1;exitY=0.5;exitDx=0;exitDy=0;source=8;target=9;" edge="1" parent="1">
          <mxGeometry relative="1" as="geometry" />
        </mxCell>
        <mxCell id="kQp47Izvt7wKuxhaLCoe-12" value="Thông tin chi tiết sự kiện" style="edge;orthogonal=0;html=1;entryX=0;entryY=0.5;entryDx=0;entryDy=0;exitX=0;exitY=0.5;exitDx=0;exitDy=0;source=9;target=8;dashed=1;endArrow=open;" edge="1" parent="1">
          <mxGeometry relative="1" as="geometry" />
        </mxCell>
        <mxCell id="kQp47Izvt7wKuxhaLCoe-13" value="Dữ liệu chi tiết sự kiện (đã định dạng)" style="edge;orthogonal=0;html=1;entryX=0;entryY=0.5;entryDx=0;entryDy=0;exitX=0;exitY=0.5;exitDx=0;exitDy=0;source=8;target=7;dashed=1;endArrow=open;" edge="1" parent="1">
          <mxGeometry relative="1" as="geometry" />
        </mxCell>
        <mxCell id="kQp47Izvt7wKuxhaLCoe-14" value="Hiển thị chi tiết sự kiện" style="edge;orthogonal=0;html=1;entryX=0;entryY=0.5;entryDx=0;entryDy=0;exitX=0;exitY=0.5;exitDx=0;exitDy=0;source=7;target=6;" edge="1" parent="1">
          <mxGeometry relative="1" as="geometry" />
        </mxCell>
        <mxCell id="kQp47Izvt7wKuxhaLCoe-16" value="Người dùng" style="shape=umlLifeline;whiteSpace=wrap;html=1;" vertex="1" parent="1">
          <mxGeometry x="110" y="170" width="120" height="400" as="geometry" />
        </mxCell>
        <mxCell id="kQp47Izvt7wKuxhaLCoe-17" value="Giao diện web" style="shape=umlLifeline;whiteSpace=wrap;html=1;" vertex="1" parent="1">
          <mxGeometry x="270" y="170" width="120" height="400" as="geometry" />
        </mxCell>
        <mxCell id="kQp47Izvt7wKuxhaLCoe-18" value="Event Controller" style="shape=umlLifeline;whiteSpace=wrap;html=1;" vertex="1" parent="1">
          <mxGeometry x="430" y="170" width="120" height="400" as="geometry" />
        </mxCell>
        <mxCell id="kQp47Izvt7wKuxhaLCoe-19" value="CSDL Sự kiện" style="shape=umlLifeline;whiteSpace=wrap;html=1;" vertex="1" parent="1">
          <mxGeometry x="590" y="170" width="120" height="400" as="geometry" />
        </mxCell>
        <mxCell id="kQp47Izvt7wKuxhaLCoe-20" value="Nhấp vào sự kiện" style="endArrow=block;html=1;exitX=0.487;exitY=0.28;exitDx=0;exitDy=0;exitPerimeter=0;entryX=0.525;entryY=0.28;entryDx=0;entryDy=0;entryPerimeter=0;" edge="1" parent="1" source="kQp47Izvt7wKuxhaLCoe-16" target="kQp47Izvt7wKuxhaLCoe-17">
          <mxGeometry y="11" relative="1" as="geometry">
            <mxPoint x="270" y="281.0000000000001" as="targetPoint" />
            <mxPoint x="230" y="281.0000000000001" as="sourcePoint" />
            <mxPoint as="offset" />
          </mxGeometry>
        </mxCell>
        <mxCell id="kQp47Izvt7wKuxhaLCoe-21" value="Gửi yêu cầu xem chi tiết (eventId)" style="endArrow=block;html=1;" edge="1" parent="1">
          <mxGeometry relative="1" as="geometry">
            <mxPoint x="430" y="321.0000000000001" as="targetPoint" />
            <mxPoint x="390" y="321.0000000000001" as="sourcePoint" />
          </mxGeometry>
        </mxCell>
        <mxCell id="kQp47Izvt7wKuxhaLCoe-22" value="Truy vấn DB theo eventId" style="endArrow=block;html=1;entryX=0.498;entryY=0.413;entryDx=0;entryDy=0;entryPerimeter=0;exitX=0.494;exitY=0.413;exitDx=0;exitDy=0;exitPerimeter=0;" edge="1" parent="1">
          <mxGeometry x="0.006" y="15" relative="1" as="geometry">
            <mxPoint x="649.76" y="357.20000000000005" as="targetPoint" />
            <mxPoint x="489.28" y="357.20000000000005" as="sourcePoint" />
            <mxPoint as="offset" />
          </mxGeometry>
        </mxCell>
        <mxCell id="kQp47Izvt7wKuxhaLCoe-23" value="Trả về thông tin sự kiện" style="dashed=1;endArrow=open;html=1;exitX=0.489;exitY=0.634;exitDx=0;exitDy=0;exitPerimeter=0;entryX=0.494;entryY=0.634;entryDx=0;entryDy=0;entryPerimeter=0;" edge="1" parent="1" source="kQp47Izvt7wKuxhaLCoe-19" target="kQp47Izvt7wKuxhaLCoe-18">
          <mxGeometry y="-14" relative="1" as="geometry">
            <mxPoint x="550" y="424.0000000000001" as="targetPoint" />
            <mxPoint x="590" y="424.0000000000001" as="sourcePoint" />
            <mxPoint as="offset" />
          </mxGeometry>
        </mxCell>
        <mxCell id="kQp47Izvt7wKuxhaLCoe-24" value="Trả dữ liệu chi tiết đã xử lý" style="dashed=1;endArrow=open;html=1;" edge="1" parent="1">
          <mxGeometry relative="1" as="geometry">
            <mxPoint x="390" y="448.0000000000001" as="targetPoint" />
            <mxPoint x="430" y="448.0000000000001" as="sourcePoint" />
          </mxGeometry>
        </mxCell>
        <mxCell id="kQp47Izvt7wKuxhaLCoe-25" value="Hiển thị chi tiết sự kiện" style="dashed=1;endArrow=open;html=1;entryX=0.496;entryY=0.775;entryDx=0;entryDy=0;entryPerimeter=0;exitX=0.508;exitY=0.777;exitDx=0;exitDy=0;exitPerimeter=0;" edge="1" parent="1" source="kQp47Izvt7wKuxhaLCoe-17" target="kQp47Izvt7wKuxhaLCoe-16">
          <mxGeometry y="-12" relative="1" as="geometry">
            <mxPoint x="230" y="482.0000000000001" as="targetPoint" />
            <mxPoint x="270" y="482.0000000000001" as="sourcePoint" />
            <mxPoint as="offset" />
          </mxGeometry>
        </mxCell>
        <mxCell id="kQp47Izvt7wKuxhaLCoe-26" value="" style="endArrow=classic;html=1;rounded=0;exitX=0.491;exitY=0.405;exitDx=0;exitDy=0;exitPerimeter=0;entryX=0.494;entryY=0.408;entryDx=0;entryDy=0;entryPerimeter=0;" edge="1" parent="1" source="kQp47Izvt7wKuxhaLCoe-17" target="kQp47Izvt7wKuxhaLCoe-18">
          <mxGeometry width="50" height="50" relative="1" as="geometry">
            <mxPoint x="310" y="450" as="sourcePoint" />
            <mxPoint x="360" y="400" as="targetPoint" />
          </mxGeometry>
        </mxCell>
        <mxCell id="kQp47Izvt7wKuxhaLCoe-28" value="" style="endArrow=classic;html=1;rounded=0;entryX=0.508;entryY=0.66;entryDx=0;entryDy=0;entryPerimeter=0;exitX=0.5;exitY=0.66;exitDx=0;exitDy=0;exitPerimeter=0;dashed=1;" edge="1" parent="1">
          <mxGeometry width="50" height="50" relative="1" as="geometry">
            <mxPoint x="490" y="460.0000000000001" as="sourcePoint" />
            <mxPoint x="330.96000000000004" y="460.0000000000001" as="targetPoint" />
          </mxGeometry>
        </mxCell>
        <mxCell id="kQp47Izvt7wKuxhaLCoe-29" value="Người dùng" style="shape=umlLifeline;" vertex="1" parent="1">
          <mxGeometry x="40" y="60" width="120" height="400" as="geometry" />
        </mxCell>
        <mxCell id="kQp47Izvt7wKuxhaLCoe-30" value="Giao diện Web" style="shape=umlLifeline;" vertex="1" parent="1">
          <mxGeometry x="220" y="60" width="120" height="400" as="geometry" />
        </mxCell>
        <mxCell id="kQp47Izvt7wKuxhaLCoe-31" value="Auth Controller" style="shape=umlLifeline;" vertex="1" parent="1">
          <mxGeometry x="400" y="60" width="120" height="400" as="geometry" />
        </mxCell>
        <mxCell id="kQp47Izvt7wKuxhaLCoe-32" value="CSDL Người dùng" style="shape=umlLifeline;" vertex="1" parent="1">
          <mxGeometry x="580" y="60" width="120" height="400" as="geometry" />
        </mxCell>
        <mxCell id="kQp47Izvt7wKuxhaLCoe-33" value="Nhập thông tin đăng nhập" style="endArrow=block;" edge="1" parent="1" source="kQp47Izvt7wKuxhaLCoe-29" target="kQp47Izvt7wKuxhaLCoe-30">
          <mxGeometry relative="1" as="geometry" />
        </mxCell>
        <mxCell id="kQp47Izvt7wKuxhaLCoe-34" value="Gửi yêu cầu đăng nhập (email, mật khẩu)" style="endArrow=block;" edge="1" parent="1" source="kQp47Izvt7wKuxhaLCoe-30" target="kQp47Izvt7wKuxhaLCoe-31">
          <mxGeometry relative="1" as="geometry" />
        </mxCell>
        <mxCell id="kQp47Izvt7wKuxhaLCoe-35" value="Truy vấn người dùng" style="endArrow=block;" edge="1" parent="1" source="kQp47Izvt7wKuxhaLCoe-31" target="kQp47Izvt7wKuxhaLCoe-32">
          <mxGeometry relative="1" as="geometry" />
        </mxCell>
        <mxCell id="kQp47Izvt7wKuxhaLCoe-36" value="Trả kết quả" style="dashed=1;endArrow=open;" edge="1" parent="1" source="kQp47Izvt7wKuxhaLCoe-32" target="kQp47Izvt7wKuxhaLCoe-31">
          <mxGeometry relative="1" as="geometry" />
        </mxCell>
        <mxCell id="kQp47Izvt7wKuxhaLCoe-37" value="Phản hồi trạng thái đăng nhập" style="dashed=1;endArrow=open;" edge="1" parent="1" source="kQp47Izvt7wKuxhaLCoe-31" target="kQp47Izvt7wKuxhaLCoe-30">
          <mxGeometry relative="1" as="geometry" />
        </mxCell>
        <mxCell id="kQp47Izvt7wKuxhaLCoe-38" value="Hiển thị kết quả" style="dashed=1;endArrow=open;" edge="1" parent="1" source="kQp47Izvt7wKuxhaLCoe-30" target="kQp47Izvt7wKuxhaLCoe-29">
          <mxGeometry relative="1" as="geometry" />
        </mxCell>
      </root>
    </mxGraphModel>
  </diagram>
</mxfile>
